ffmpeg started on 2026-04-01 at 10:49:35
Report written to "D:\Convert\FFMetrics\reports\psnr_report-6.txt"
Log level: 32
Command line:
ffmpeg -hide_banner -nostdin -r 24000/1001 -i "F:\\Convert\\files\\[DC] Make Heroine ga Oosugiru - 07_Telegram_HEVC(258).mkv" -r 24000/1001 -i "F:\\Convert\\files\\[DC] Make Heroine ga Oosugiru - 07_Telegram.mp4" -lavfi "[0:v]settb=AVTB,setpts=PTS-STARTPTS,format=pix_fmts=yuv420p10le,fps=24000/1001,scale=1920:1080:flags=lanczos:param0=3:out_range=limited:out_color_matrix=bt709:out_chroma_loc=left,setsar=1/1,setdar=(1920/1080)*(1/1),colorspace=format=yuv420p10:range=tv:primaries=bt709:trc=bt709:space=bt709:fast=0[main];[1:v]settb=AVTB,setpts=PTS-STARTPTS,format=pix_fmts=yuv420p,fps=24000/1001,scale=1920:1080:flags=lanczos:param0=3:out_range=limited:out_color_matrix=bt709:out_chroma_loc=left,setsar=1/1,setdar=(1920/1080)*(1/1),colorspace=format=yuv420p:range=tv:primaries=bt709:trc=bt709:space=bt709:fast=0[ref];[main][ref]psnr=eof_action=endall:stats_file='D\\:/Convert/FFMetrics/logs/psnr_logfile-6.txt'" -f null -
Input #0, matroska,webm, from 'F:\Convert\files\[DC] Make Heroine ga Oosugiru - 07_Telegram_HEVC(258).mkv':
  Metadata:
    COMPATIBLE_BRANDS: isomiso2avc1mp41
    MAJOR_BRAND     : isom
    MINOR_VERSION   : 512
    ENCODER         : Lavf61.7.100
  Duration: 00:24:06.79, start: -0.021000, bitrate: 962 kb/s
  Stream #0:0: Video: hevc (Main 10), yuv420p10le(tv, bt709, progressive), 1920x1080 [SAR 1:1 DAR 16:9], 23.98 fps, 23.98 tbr, 1k tbn (default)
      Metadata:
        HANDLER_NAME    : VideoHandler
        VENDOR_ID       : [0][0][0][0]
        ENCODER         : Lavc61.19.100 libx265
        BPS             : 764901
        DURATION        : 00:24:06.569708333
        NUMBER_OF_FRAMES: 34683
        NUMBER_OF_BYTES : 138310426
        _STATISTICS_WRITING_APP: mkvpropedit v94.0 ('Initiate') 64-bit
        _STATISTICS_WRITING_DATE_UTC: 2026-03-30 09:52:09
        _STATISTICS_TAGS: BPS DURATION NUMBER_OF_FRAMES NUMBER_OF_BYTES
  Stream #0:1: Audio: aac (LC), 48000 Hz, stereo, fltp (default)
      Metadata:
        HANDLER_NAME    : SoundHandler
        VENDOR_ID       : [0][0][0][0]
        ENCODER         : Lavc61.19.100 aac
        BPS             : 193194
        DURATION        : 00:24:06.784000000
        NUMBER_OF_FRAMES: 67819
        NUMBER_OF_BYTES : 34938755
        _STATISTICS_WRITING_APP: mkvpropedit v94.0 ('Initiate') 64-bit
        _STATISTICS_WRITING_DATE_UTC: 2026-03-30 09:52:09
        _STATISTICS_TAGS: BPS DURATION NUMBER_OF_FRAMES NUMBER_OF_BYTES
Input #1, mov,mp4,m4a,3gp,3g2,mj2, from 'F:\Convert\files\[DC] Make Heroine ga Oosugiru - 07_Telegram.mp4':
  Metadata:
    major_brand     : isom
    minor_version   : 512
    compatible_brands: isomiso2avc1mp41
    encoder         : Lavf60.16.100
  Duration: 00:24:06.74, start: 0.000000, bitrate: 3764 kb/s
  Stream #1:0[0x1](und): Video: h264 (High) (avc1 / 0x31637661), yuv420p(tv, bt709, progressive), 1920x1080 [SAR 1:1 DAR 16:9], 3616 kb/s, 23.98 fps, 23.98 tbr, 24k tbn (default)
      Metadata:
        handler_name    : VideoHandler
        vendor_id       : [0][0][0][0]
        encoder         : Lavc60.31.102 h264_qsv
  Stream #1:1[0x2](und): Audio: aac (HE-AACv2) (mp4a / 0x6134706D), 48000 Hz, stereo, fltp, 144 kb/s (default)
      Metadata:
        handler_name    : SoundHandler
        vendor_id       : [0][0][0][0]
Stream mapping:
  Stream #0:0 (hevc) -> settb:default
  Stream #1:0 (h264) -> settb:default
  psnr:default -> Stream #0:0 (wrapped_avframe)
  Stream #0:1 -> #0:1 (aac (native) -> pcm_s16le (native))
Output #0, null, to 'pipe:':
  Metadata:
    COMPATIBLE_BRANDS: isomiso2avc1mp41
    MAJOR_BRAND     : isom
    MINOR_VERSION   : 512
    encoder         : Lavf61.7.100
  Stream #0:0: Video: wrapped_avframe, yuv420p10le(tv, bt709, progressive), 1920x1080 [SAR 1:1 DAR 16:9], q=2-31, 200 kb/s, 23.98 fps, 23.98 tbn
      Metadata:
        encoder         : Lavc61.19.100 wrapped_avframe
  Stream #0:1: Audio: pcm_s16le, 48000 Hz, stereo, s16, 1536 kb/s (default)
      Metadata:
        HANDLER_NAME    : SoundHandler
        VENDOR_ID       : [0][0][0][0]
        _STATISTICS_TAGS: BPS DURATION NUMBER_OF_FRAMES NUMBER_OF_BYTES
        BPS             : 193194
        DURATION        : 00:24:06.784000000
        NUMBER_OF_FRAMES: 67819
        NUMBER_OF_BYTES : 34938755
        _STATISTICS_WRITING_APP: mkvpropedit v94.0 ('Initiate') 64-bit
        _STATISTICS_WRITING_DATE_UTC: 2026-03-30 09:52:09
        encoder         : Lavc61.19.100 pcm_s16le
frame=  126 fps=0.0 q=-0.0 size=N/A time=00:00:05.25 bitrate=N/A speed=10.1x    frame=  325 fps=315 q=-0.0 size=N/A time=00:00:13.55 bitrate=N/A speed=13.1x    frame=  532 fps=344 q=-0.0 size=N/A time=00:00:22.18 bitrate=N/A speed=14.4x    frame=  704 fps=342 q=-0.0 size=N/A time=00:00:29.36 bitrate=N/A speed=14.3x    frame=  889 fps=346 q=-0.0 size=N/A time=00:00:37.07 bitrate=N/A speed=14.4x    frame= 1032 fps=333 q=-0.0 size=N/A time=00:00:43.04 bitrate=N/A speed=13.9x    frame= 1190 fps=330 q=-0.0 size=N/A time=00:00:49.63 bitrate=N/A speed=13.7x    frame= 1353 fps=328 q=-0.0 size=N/A time=00:00:56.43 bitrate=N/A speed=13.7x    frame= 1512 fps=326 q=-0.0 size=N/A time=00:01:03.06 bitrate=N/A speed=13.6x    frame= 1647 fps=319 q=-0.0 size=N/A time=00:01:08.69 bitrate=N/A speed=13.3x    frame= 1804 fps=318 q=-0.0 size=N/A time=00:01:15.24 bitrate=N/A speed=13.3x    frame= 1959 fps=317 q=-0.0 size=N/A time=00:01:21.70 bitrate=N/A speed=13.2x    frame= 2083 fps=311 q=-0.0 size=N/A time=00:01:26.87 bitrate=N/A speed=  13x    frame= 2223 fps=308 q=-0.0 size=N/A time=00:01:32.71 bitrate=N/A speed=12.9x    frame= 2362 fps=306 q=-0.0 size=N/A time=00:01:38.51 bitrate=N/A speed=12.8x    frame= 2486 fps=301 q=-0.0 size=N/A time=00:01:43.68 bitrate=N/A speed=12.6x    frame= 2641 fps=301 q=-0.0 size=N/A time=00:01:50.15 bitrate=N/A speed=12.6x    frame= 2820 fps=304 q=-0.0 size=N/A time=00:01:57.61 bitrate=N/A speed=12.7x    frame= 2992 fps=306 q=-0.0 size=N/A time=00:02:04.79 bitrate=N/A speed=12.7x    frame= 3194 fps=310 q=-0.0 size=N/A time=00:02:13.21 bitrate=N/A speed=12.9x    frame= 3398 fps=314 q=-0.0 size=N/A time=00:02:21.72 bitrate=N/A speed=13.1x    frame= 3602 fps=318 q=-0.0 size=N/A time=00:02:30.23 bitrate=N/A speed=13.3x    frame= 3810 fps=321 q=-0.0 size=N/A time=00:02:38.90 bitrate=N/A speed=13.4x    frame= 4004 fps=324 q=-0.0 size=N/A time=00:02:47.00 bitrate=N/A speed=13.5x    frame= 4208 fps=327 q=-0.0 size=N/A time=00:02:55.50 bitrate=N/A speed=13.6x    frame= 4406 fps=329 q=-0.0 size=N/A time=00:03:03.76 bitrate=N/A speed=13.7x    frame= 4608 fps=331 q=-0.0 size=N/A time=00:03:12.19 bitrate=N/A speed=13.8x    frame= 4802 fps=333 q=-0.0 size=N/A time=00:03:20.28 bitrate=N/A speed=13.9x    frame= 5005 fps=335 q=-0.0 size=N/A time=00:03:28.75 bitrate=N/A speed=  14x    frame= 5201 fps=336 q=-0.0 size=N/A time=00:03:36.92 bitrate=N/A speed=  14x    frame= 5391 fps=337 q=-0.0 size=N/A time=00:03:44.84 bitrate=N/A speed=14.1x    frame= 5578 fps=338 q=-0.0 size=N/A time=00:03:52.64 bitrate=N/A speed=14.1x    frame= 5769 fps=339 q=-0.0 size=N/A time=00:04:00.61 bitrate=N/A speed=14.1x    frame= 5961 fps=340 q=-0.0 size=N/A time=00:04:08.62 bitrate=N/A speed=14.2x    frame= 6141 fps=340 q=-0.0 size=N/A time=00:04:16.13 bitrate=N/A speed=14.2x    frame= 6334 fps=341 q=-0.0 size=N/A time=00:04:24.18 bitrate=N/A speed=14.2x    frame= 6529 fps=342 q=-0.0 size=N/A time=00:04:32.31 bitrate=N/A speed=14.3x    frame= 6729 fps=343 q=-0.0 size=N/A time=00:04:40.65 bitrate=N/A speed=14.3x    frame= 6920 fps=344 q=-0.0 size=N/A time=00:04:48.62 bitrate=N/A speed=14.4x    frame= 7112 fps=345 q=-0.0 size=N/A time=00:04:56.62 bitrate=N/A speed=14.4x    frame= 7306 fps=345 q=-0.0 size=N/A time=00:05:04.72 bitrate=N/A speed=14.4x    frame= 7496 fps=346 q=-0.0 size=N/A time=00:05:12.64 bitrate=N/A speed=14.4x    frame= 7670 fps=346 q=-0.0 size=N/A time=00:05:19.90 bitrate=N/A speed=14.4x    frame= 7868 fps=346 q=-0.0 size=N/A time=00:05:28.16 bitrate=N/A speed=14.5x    frame= 8061 fps=347 q=-0.0 size=N/A time=00:05:36.21 bitrate=N/A speed=14.5x    frame= 8253 fps=348 q=-0.0 size=N/A time=00:05:44.21 bitrate=N/A speed=14.5x    frame= 8441 fps=348 q=-0.0 size=N/A time=00:05:52.06 bitrate=N/A speed=14.5x    frame= 8630 fps=348 q=-0.0 size=N/A time=00:05:59.94 bitrate=N/A speed=14.5x    frame= 8824 fps=349 q=-0.0 size=N/A time=00:06:08.03 bitrate=N/A speed=14.6x    frame= 9011 fps=349 q=-0.0 size=N/A time=00:06:15.83 bitrate=N/A speed=14.6x    frame= 9198 fps=350 q=-0.0 size=N/A time=00:06:23.63 bitrate=N/A speed=14.6x    frame= 9387 fps=350 q=-0.0 size=N/A time=00:06:31.51 bitrate=N/A speed=14.6x    frame= 9581 fps=350 q=-0.0 size=N/A time=00:06:39.60 bitrate=N/A speed=14.6x    frame= 9774 fps=351 q=-0.0 size=N/A time=00:06:47.65 bitrate=N/A speed=14.6x    frame= 9976 fps=352 q=-0.0 size=N/A time=00:06:56.08 bitrate=N/A speed=14.7x    frame=10162 fps=352 q=-0.0 size=N/A time=00:07:03.84 bitrate=N/A speed=14.7x    frame=10351 fps=352 q=-0.0 size=N/A time=00:07:11.72 bitrate=N/A speed=14.7x    frame=10540 fps=352 q=-0.0 size=N/A time=00:07:19.60 bitrate=N/A speed=14.7x    frame=10734 fps=353 q=-0.0 size=N/A time=00:07:27.69 bitrate=N/A speed=14.7x    frame=10917 fps=353 q=-0.0 size=N/A time=00:07:35.32 bitrate=N/A speed=14.7x    frame=11114 fps=353 q=-0.0 size=N/A time=00:07:43.54 bitrate=N/A speed=14.7x    frame=11292 fps=353 q=-0.0 size=N/A time=00:07:50.97 bitrate=N/A speed=14.7x    frame=11493 fps=354 q=-0.0 size=N/A time=00:07:59.35 bitrate=N/A speed=14.7x    frame=11683 fps=354 q=-0.0 size=N/A time=00:08:07.27 bitrate=N/A speed=14.8x    frame=11878 fps=354 q=-0.0 size=N/A time=00:08:15.41 bitrate=N/A speed=14.8x    frame=12069 fps=355 q=-0.0 size=N/A time=00:08:23.37 bitrate=N/A speed=14.8x    frame=12273 fps=355 q=-0.0 size=N/A time=00:08:31.88 bitrate=N/A speed=14.8x    frame=12461 fps=355 q=-0.0 size=N/A time=00:08:39.72 bitrate=N/A speed=14.8x    frame=12650 fps=355 q=-0.0 size=N/A time=00:08:47.61 bitrate=N/A speed=14.8x    frame=12849 fps=356 q=-0.0 size=N/A time=00:08:55.91 bitrate=N/A speed=14.8x    frame=13037 fps=356 q=-0.0 size=N/A time=00:09:03.75 bitrate=N/A speed=14.8x    frame=13219 fps=356 q=-0.0 size=N/A time=00:09:11.34 bitrate=N/A speed=14.8x    frame=13402 fps=356 q=-0.0 size=N/A time=00:09:18.97 bitrate=N/A speed=14.8x    frame=13590 fps=356 q=-0.0 size=N/A time=00:09:26.81 bitrate=N/A speed=14.8x    frame=13776 fps=356 q=-0.0 size=N/A time=00:09:34.57 bitrate=N/A speed=14.9x    frame=13972 fps=356 q=-0.0 size=N/A time=00:09:42.74 bitrate=N/A speed=14.9x    frame=14138 fps=356 q=-0.0 size=N/A time=00:09:49.67 bitrate=N/A speed=14.8x    frame=14327 fps=356 q=-0.0 size=N/A time=00:09:57.55 bitrate=N/A speed=14.9x    frame=14519 fps=356 q=-0.0 size=N/A time=00:10:05.56 bitrate=N/A speed=14.9x    frame=14714 fps=357 q=-0.0 size=N/A time=00:10:13.69 bitrate=N/A speed=14.9x    frame=14898 fps=357 q=-0.0 size=N/A time=00:10:21.37 bitrate=N/A speed=14.9x    frame=15084 fps=357 q=-0.0 size=N/A time=00:10:29.12 bitrate=N/A speed=14.9x    frame=15241 fps=356 q=-0.0 size=N/A time=00:10:35.67 bitrate=N/A speed=14.8x    frame=15425 fps=356 q=-0.0 size=N/A time=00:10:43.35 bitrate=N/A speed=14.8x    frame=15605 fps=356 q=-0.0 size=N/A time=00:10:50.85 bitrate=N/A speed=14.8x    frame=15785 fps=356 q=-0.0 size=N/A time=00:10:58.36 bitrate=N/A speed=14.8x    frame=15983 fps=356 q=-0.0 size=N/A time=00:11:06.62 bitrate=N/A speed=14.9x    frame=16177 fps=356 q=-0.0 size=N/A time=00:11:14.71 bitrate=N/A speed=14.9x    frame=16357 fps=356 q=-0.0 size=N/A time=00:11:22.22 bitrate=N/A speed=14.9x    frame=16540 fps=356 q=-0.0 size=N/A time=00:11:29.85 bitrate=N/A speed=14.9x    frame=16724 fps=356 q=-0.0 size=N/A time=00:11:37.53 bitrate=N/A speed=14.9x    frame=16904 fps=356 q=-0.0 size=N/A time=00:11:45.03 bitrate=N/A speed=14.9x    frame=17103 fps=357 q=-0.0 size=N/A time=00:11:53.33 bitrate=N/A speed=14.9x    frame=17291 fps=357 q=-0.0 size=N/A time=00:12:01.17 bitrate=N/A speed=14.9x    frame=17487 fps=357 q=-0.0 size=N/A time=00:12:09.35 bitrate=N/A speed=14.9x    frame=17659 fps=357 q=-0.0 size=N/A time=00:12:16.52 bitrate=N/A speed=14.9x    frame=17836 fps=357 q=-0.0 size=N/A time=00:12:23.90 bitrate=N/A speed=14.9x    frame=18026 fps=357 q=-0.0 size=N/A time=00:12:31.83 bitrate=N/A speed=14.9x    frame=18209 fps=357 q=-0.0 size=N/A time=00:12:39.46 bitrate=N/A speed=14.9x    frame=18393 fps=357 q=-0.0 size=N/A time=00:12:47.14 bitrate=N/A speed=14.9x    frame=18595 fps=357 q=-0.0 size=N/A time=00:12:55.56 bitrate=N/A speed=14.9x    frame=18793 fps=357 q=-0.0 size=N/A time=00:13:03.82 bitrate=N/A speed=14.9x    frame=18987 fps=357 q=-0.0 size=N/A time=00:13:11.91 bitrate=N/A speed=14.9x    frame=19184 fps=358 q=-0.0 size=N/A time=00:13:20.13 bitrate=N/A speed=14.9x    frame=19385 fps=358 q=-0.0 size=N/A time=00:13:28.51 bitrate=N/A speed=14.9x    frame=19583 fps=358 q=-0.0 size=N/A time=00:13:36.77 bitrate=N/A speed=14.9x    frame=19771 fps=358 q=-0.0 size=N/A time=00:13:44.61 bitrate=N/A speed=14.9x    frame=19964 fps=358 q=-0.0 size=N/A time=00:13:52.66 bitrate=N/A speed=14.9x    frame=20174 fps=359 q=-0.0 size=N/A time=00:14:01.42 bitrate=N/A speed=  15x    frame=20360 fps=359 q=-0.0 size=N/A time=00:14:09.18 bitrate=N/A speed=  15x    frame=20546 fps=359 q=-0.0 size=N/A time=00:14:16.93 bitrate=N/A speed=  15x    frame=20724 fps=359 q=-0.0 size=N/A time=00:14:24.36 bitrate=N/A speed=  15x    frame=20906 fps=359 q=-0.0 size=N/A time=00:14:31.95 bitrate=N/A speed=  15x    frame=21084 fps=359 q=-0.0 size=N/A time=00:14:39.37 bitrate=N/A speed=  15x    frame=21274 fps=359 q=-0.0 size=N/A time=00:14:47.30 bitrate=N/A speed=  15x    frame=21462 fps=359 q=-0.0 size=N/A time=00:14:55.14 bitrate=N/A speed=  15x    frame=21654 fps=359 q=-0.0 size=N/A time=00:15:03.15 bitrate=N/A speed=  15x    frame=21845 fps=359 q=-0.0 size=N/A time=00:15:11.11 bitrate=N/A speed=  15x    frame=22033 fps=359 q=-0.0 size=N/A time=00:15:18.95 bitrate=N/A speed=  15x    frame=22223 fps=359 q=-0.0 size=N/A time=00:15:26.88 bitrate=N/A speed=  15x    frame=22406 fps=359 q=-0.0 size=N/A time=00:15:34.51 bitrate=N/A speed=  15x    frame=22597 fps=359 q=-0.0 size=N/A time=00:15:42.48 bitrate=N/A speed=  15x    frame=22762 fps=359 q=-0.0 size=N/A time=00:15:49.36 bitrate=N/A speed=  15x    frame=22953 fps=359 q=-0.0 size=N/A time=00:15:57.33 bitrate=N/A speed=  15x    frame=23146 fps=359 q=-0.0 size=N/A time=00:16:05.38 bitrate=N/A speed=  15x    frame=23336 fps=359 q=-0.0 size=N/A time=00:16:13.30 bitrate=N/A speed=  15x    frame=23529 fps=359 q=-0.0 size=N/A time=00:16:21.35 bitrate=N/A speed=  15x    frame=23716 fps=359 q=-0.0 size=N/A time=00:16:29.15 bitrate=N/A speed=  15x    frame=23918 fps=359 q=-0.0 size=N/A time=00:16:37.57 bitrate=N/A speed=  15x    frame=24103 fps=359 q=-0.0 size=N/A time=00:16:45.29 bitrate=N/A speed=  15x    frame=24292 fps=360 q=-0.0 size=N/A time=00:16:53.17 bitrate=N/A speed=  15x    frame=24485 fps=360 q=-0.0 size=N/A time=00:17:01.22 bitrate=N/A speed=  15x    frame=24683 fps=360 q=-0.0 size=N/A time=00:17:09.48 bitrate=N/A speed=  15x    frame=24869 fps=360 q=-0.0 size=N/A time=00:17:17.24 bitrate=N/A speed=  15x    frame=25069 fps=360 q=-0.0 size=N/A time=00:17:25.58 bitrate=N/A speed=  15x    frame=25268 fps=360 q=-0.0 size=N/A time=00:17:33.88 bitrate=N/A speed=  15x    frame=25457 fps=360 q=-0.0 size=N/A time=00:17:41.76 bitrate=N/A speed=  15x    frame=25659 fps=361 q=-0.0 size=N/A time=00:17:50.19 bitrate=N/A speed=  15x    frame=25849 fps=361 q=-0.0 size=N/A time=00:17:58.11 bitrate=N/A speed=  15x    frame=26043 fps=361 q=-0.0 size=N/A time=00:18:06.21 bitrate=N/A speed=  15x    frame=26235 fps=361 q=-0.0 size=N/A time=00:18:14.21 bitrate=N/A speed=  15x    frame=26420 fps=361 q=-0.0 size=N/A time=00:18:21.93 bitrate=N/A speed=  15x    frame=26609 fps=361 q=-0.0 size=N/A time=00:18:29.81 bitrate=N/A speed=  15x    frame=26794 fps=361 q=-0.0 size=N/A time=00:18:37.53 bitrate=N/A speed=  15x    frame=26976 fps=361 q=-0.0 size=N/A time=00:18:45.12 bitrate=N/A speed=  15x    frame=27161 fps=361 q=-0.0 size=N/A time=00:18:52.84 bitrate=N/A speed=  15x    frame=27338 fps=361 q=-0.0 size=N/A time=00:19:00.22 bitrate=N/A speed=  15x    frame=27530 fps=361 q=-0.0 size=N/A time=00:19:08.23 bitrate=N/A speed=  15x    frame=27721 fps=361 q=-0.0 size=N/A time=00:19:16.19 bitrate=N/A speed=  15x    frame=27901 fps=361 q=-0.0 size=N/A time=00:19:23.70 bitrate=N/A speed=  15x    frame=28092 fps=361 q=-0.0 size=N/A time=00:19:31.67 bitrate=N/A speed=  15x    frame=28279 fps=361 q=-0.0 size=N/A time=00:19:39.46 bitrate=N/A speed=  15x    frame=28463 fps=361 q=-0.0 size=N/A time=00:19:47.14 bitrate=N/A speed=  15x    frame=28656 fps=361 q=-0.0 size=N/A time=00:19:55.19 bitrate=N/A speed=  15x    frame=28827 fps=360 q=-0.0 size=N/A time=00:20:02.32 bitrate=N/A speed=  15x    frame=28996 fps=360 q=-0.0 size=N/A time=00:20:09.37 bitrate=N/A speed=  15x    frame=29173 fps=360 q=-0.0 size=N/A time=00:20:16.75 bitrate=N/A speed=  15x    frame=29351 fps=360 q=-0.0 size=N/A time=00:20:24.18 bitrate=N/A speed=  15x    frame=29520 fps=360 q=-0.0 size=N/A time=00:20:31.23 bitrate=N/A speed=  15x    frame=29699 fps=360 q=-0.0 size=N/A time=00:20:38.69 bitrate=N/A speed=  15x    frame=29866 fps=360 q=-0.0 size=N/A time=00:20:45.66 bitrate=N/A speed=  15x    frame=30023 fps=359 q=-0.0 size=N/A time=00:20:52.20 bitrate=N/A speed=  15x    frame=30209 fps=359 q=-0.0 size=N/A time=00:20:59.96 bitrate=N/A speed=  15x    frame=30393 fps=359 q=-0.0 size=N/A time=00:21:07.64 bitrate=N/A speed=  15x    frame=30588 fps=359 q=-0.0 size=N/A time=00:21:15.77 bitrate=N/A speed=  15x    frame=30784 fps=359 q=-0.0 size=N/A time=00:21:23.94 bitrate=N/A speed=  15x    frame=30985 fps=360 q=-0.0 size=N/A time=00:21:32.33 bitrate=N/A speed=  15x    frame=31173 fps=360 q=-0.0 size=N/A time=00:21:40.17 bitrate=N/A speed=  15x    frame=31363 fps=360 q=-0.0 size=N/A time=00:21:48.09 bitrate=N/A speed=  15x    frame=31558 fps=360 q=-0.0 size=N/A time=00:21:56.23 bitrate=N/A speed=  15x    frame=31742 fps=360 q=-0.0 size=N/A time=00:22:03.90 bitrate=N/A speed=  15x    frame=31924 fps=360 q=-0.0 size=N/A time=00:22:11.49 bitrate=N/A speed=  15x    frame=32116 fps=360 q=-0.0 size=N/A time=00:22:19.50 bitrate=N/A speed=  15x    frame=32302 fps=360 q=-0.0 size=N/A time=00:22:27.26 bitrate=N/A speed=  15x    frame=32500 fps=360 q=-0.0 size=N/A time=00:22:35.52 bitrate=N/A speed=  15x    frame=32664 fps=360 q=-0.0 size=N/A time=00:22:42.36 bitrate=N/A speed=  15x    frame=32818 fps=359 q=-0.0 size=N/A time=00:22:48.78 bitrate=N/A speed=  15x    frame=32988 fps=359 q=-0.0 size=N/A time=00:22:55.87 bitrate=N/A speed=  15x    frame=33174 fps=359 q=-0.0 size=N/A time=00:23:03.63 bitrate=N/A speed=  15x    frame=33354 fps=359 q=-0.0 size=N/A time=00:23:11.13 bitrate=N/A speed=  15x    frame=33512 fps=359 q=-0.0 size=N/A time=00:23:17.72 bitrate=N/A speed=  15x    frame=33660 fps=358 q=-0.0 size=N/A time=00:23:23.90 bitrate=N/A speed=14.9x    frame=33789 fps=358 q=-0.0 size=N/A time=00:23:29.28 bitrate=N/A speed=14.9x    frame=33918 fps=357 q=-0.0 size=N/A time=00:23:34.66 bitrate=N/A speed=14.9x    frame=34079 fps=357 q=-0.0 size=N/A time=00:23:41.37 bitrate=N/A speed=14.9x    frame=34231 fps=357 q=-0.0 size=N/A time=00:23:47.71 bitrate=N/A speed=14.9x    frame=34366 fps=356 q=-0.0 size=N/A time=00:23:53.34 bitrate=N/A speed=14.9x    frame=34510 fps=356 q=-0.0 size=N/A time=00:23:59.35 bitrate=N/A speed=14.8x    [Parsed_psnr_16 @ 0000021e190fb700] PSNR y:48.871192 u:50.314301 v:50.364508 average:49.307653 min:37.996745 max:inf
[out#0/null @ 0000021e0c41dec0] video:14903KiB audio:271276KiB subtitle:0KiB other streams:0KiB global headers:0KiB muxing overhead: unknown
frame=34683 fps=356 q=-0.0 Lsize=N/A time=00:24:06.57 bitrate=N/A speed=14.8x    
